HIERARCHY
ROOT Hips
{
	OFFSET 0.000000 0.000000 0.000000
	CHANNELS 6 Xposition Yposition Zposition Xrotation Yrotation Zrotation
	JOINT LeftUpLeg_virtual
	{
		OFFSET 0.000000 0.000000 0.000000
		CHANNELS 3 Xrotation Yrotation Zrotation
		JOINT LeftUpLeg
		{
			OFFSET 11.394100 -6.187798 -0.413800
			CHANNELS 3 Xrotation Yrotation Zrotation
			JOINT LeftLeg
			{
				OFFSET 0.430247 -32.302673 3.732800
				CHANNELS 3 Xrotation Yrotation Zrotation
				JOINT LeftFoot
				{
					OFFSET -0.430247 -48.264931 -6.423300
					CHANNELS 3 Xrotation Yrotation Zrotation
					JOINT LeftToeBase
					{
						OFFSET 4.230900 -16.068199 23.438400
						CHANNELS 3 Xrotation Yrotation Zrotation
						JOINT LeftToe_End
						{
							OFFSET 4.510700 0.695400 19.974600
							CHANNELS 3 Xrotation Yrotation Zrotation
							End Site
							{
								OFFSET 0 0 0
							}
						}
					}
				}
			}
		}
	}
	JOINT RightUpLeg_virtual
	{
		OFFSET 0.000000 0.000000 0.000000
		CHANNELS 3 Xrotation Yrotation Zrotation
		JOINT RightUpLeg
		{
			OFFSET -11.333700 -6.187798 -0.413800
			CHANNELS 3 Xrotation Yrotation Zrotation
			JOINT RightLeg
			{
				OFFSET -0.430392 -32.302628 3.733000
				CHANNELS 3 Xrotation Yrotation Zrotation
				JOINT RightFoot
				{
					OFFSET 0.430392 -48.264973 -6.423500
					CHANNELS 3 Xrotation Yrotation Zrotation
					JOINT RightToeBase
					{
						OFFSET -4.230900 -16.068199 23.438400
						CHANNELS 3 Xrotation Yrotation Zrotation
						JOINT RightToe_End
						{
							OFFSET -4.510700 0.695400 19.974600
							CHANNELS 3 Xrotation Yrotation Zrotation
							End Site
							{
								OFFSET 0 0 0
							}
						}
					}
				}
			}
		}
	}
	JOINT Spine_virtual
	{
		OFFSET 0.000000 0.000000 0.000000
		CHANNELS 3 Xrotation Yrotation Zrotation
		JOINT Spine
		{
			OFFSET -0.002400 12.777504 0.315300
			CHANNELS 3 Xrotation Yrotation Zrotation
			JOINT Spine1
			{
				OFFSET -0.002067 5.816869 0.032633
				CHANNELS 3 Xrotation Yrotation Zrotation
				JOINT Spine1_split
				{
					OFFSET -0.002067 5.816869 0.032633
					CHANNELS 3 Xrotation Yrotation Zrotation
					JOINT Spine2
					{
						OFFSET -0.002067 5.816869 0.032633
						CHANNELS 3 Xrotation Yrotation Zrotation
						JOINT Neck_virtual
						{
							OFFSET 0.000000 0.000000 0.000000
							CHANNELS 3 Xrotation Yrotation Zrotation
							JOINT Neck
							{
								OFFSET -0.003700 21.199493 -0.826900
								CHANNELS 3 Xrotation Yrotation Zrotation
								JOINT Head
								{
									OFFSET 0.000000 20.442200 4.834800
									CHANNELS 3 Xrotation Yrotation Zrotation
									JOINT HeadTop_End
									{
										OFFSET 0.000000 34.668396 4.968400
										CHANNELS 3 Xrotation Yrotation Zrotation
										End Site
										{
											OFFSET 0 0 0
										}
									}
								}
							}
						}
						JOINT LeftShoulder_virtual
						{
							OFFSET 0.000000 0.000000 0.000000
							CHANNELS 3 Xrotation Yrotation Zrotation
							JOINT LeftShoulder
							{
								OFFSET 3.288150 8.794197 -1.372250
								CHANNELS 3 Xrotation Yrotation Zrotation
								JOINT LeftShoulder_split
								{
									OFFSET 3.288150 8.794197 -1.372250
									CHANNELS 3 Xrotation Yrotation Zrotation
									JOINT LeftArm
									{
										OFFSET 11.953299 -2.279007 -0.146200
										CHANNELS 3 Xrotation Yrotation Zrotation
										JOINT LeftForeArm
										{
											OFFSET 18.448900 0.000000 0.000000
											CHANNELS 3 Xrotation Yrotation Zrotation
											JOINT LeftHand
											{
												OFFSET 29.527798 0.000000 0.000000
												CHANNELS 3 Xrotation Yrotation Zrotation
												End Site
												{
													OFFSET 0 0 0
												}
											}
										}
									}
								}
							}
						}
						JOINT RightShoulder_virtual
						{
							OFFSET 0.000000 0.000000 0.000000
							CHANNELS 3 Xrotation Yrotation Zrotation
							JOINT RightShoulder
							{
								OFFSET -3.249400 8.794197 -1.372250
								CHANNELS 3 Xrotation Yrotation Zrotation
								JOINT RightShoulder_split
								{
									OFFSET -3.249400 8.794197 -1.372250
									CHANNELS 3 Xrotation Yrotation Zrotation
									JOINT RightArm
									{
										OFFSET -11.953299 -2.279007 -0.146200
										CHANNELS 3 Xrotation Yrotation Zrotation
										JOINT RightForeArm
										{
											OFFSET -18.448900 0.000000 0.000000
											CHANNELS 3 Xrotation Yrotation Zrotation
											JOINT RightHand
											{
												OFFSET -29.527802 0.000000 0.000000
												CHANNELS 3 Xrotation Yrotation Zrotation
												End Site
												{
													OFFSET 0 0 0
												}
											}
										}
									}
								}
							}
						}
					}
				}
			}
		}
	}
}
MOTION
Frames: 4
Frame Time: 0.03333333
0.545632 82.743088 0.919655 0.000000 0.000000 0.000000 7.848378 -54.736760 9.442848 -68.689266 27.075879 40.137368 48.046774 -16.091752 2.477766 6.002895 -1.451598 -6.417294 -1.260983 -8.565797 3.457477 0.000000 0.000000 0.000000 7.009843 -55.370383 9.908759 -33.839742 -0.678986 -25.166809 42.625404 2.826333 -9.489056 -19.281166 -2.155498 25.999943 4.077425 6.927182 4.810770 0.000000 0.000000 0.000000 10.401403 -49.168742 11.115683 13.618477 3.612491 -3.250923 2.823497 6.813379 -4.338361 0.242951 -4.651478 1.467721 0.000000 0.000000 0.000000 -3.756627 5.910862 -3.228185 -0.509614 10.888128 -0.410913 -2.232355 26.369057 -4.367438 0.000000 0.000000 0.000000 -4.710059 5.599012 -3.333373 -0.663145 -7.709539 -2.904499 -0.232458 -3.021148 2.660173 -10.885955 5.960437 -45.253760 -20.980997 -28.781748 -16.907481 0.000000 0.000000 0.000000 -5.163638 5.550940 -2.883435 -2.190173 21.766042 0.765026 -4.442340 -1.790047 2.955267 3.341638 -30.035371 59.543281 -19.407998 38.813496 18.955233 0.000000 0.000000 0.000000 
0.215884 82.647728 0.815865 0.000000 0.000000 0.000000 7.591875 -54.903840 9.594543 -68.715849 27.582097 40.190851 48.153196 -15.939708 2.413168 6.310445 -0.986767 -5.804141 -0.453592 -8.472125 2.786428 0.000000 0.000000 0.000000 6.721667 -55.383135 9.947707 -34.415301 -0.812557 -25.408666 42.767831 2.590060 -9.326516 -18.874927 -2.159156 25.716552 4.231264 6.882718 4.940149 0.000000 0.000000 0.000000 9.892681 -49.242659 10.865411 13.783753 3.391596 -3.557544 2.796404 6.790544 -4.360640 -0.164930 -4.301619 1.077343 0.000000 0.000000 0.000000 -3.839004 5.945645 -3.240497 -0.591805 11.204491 -0.549899 -2.185326 26.446487 -4.184334 0.000000 0.000000 0.000000 -4.744949 5.585012 -3.330842 -0.544675 -7.952869 -2.326680 -0.633675 -2.342345 1.869854 -11.522432 5.986082 -45.301056 -21.495456 -29.743585 -17.492290 0.000000 0.000000 0.000000 -5.046482 5.530437 -2.815242 -2.179253 21.379694 0.886793 -5.416087 -1.292271 3.049554 5.332776 -30.332829 60.285012 -19.494822 39.184700 19.077794 0.000000 0.000000 0.000000 
-0.193646 82.669617 0.744591 0.000000 0.000000 0.000000 7.338676 -55.258016 9.494493 -68.883066 27.586219 40.444603 48.204152 -16.002966 2.577098 7.603105 -0.777575 -6.074871 0.939996 -8.281659 1.111578 0.000000 0.000000 0.000000 6.313357 -55.753400 9.732663 -34.799189 -1.082251 -25.250871 42.817035 2.188651 -9.101278 -18.849031 -2.430110 24.907856 4.453020 6.805957 4.969607 0.000000 0.000000 0.000000 9.370534 -49.611755 10.431353 13.873275 3.189928 -3.874148 2.790223 6.844350 -4.352385 -0.376581 -3.917121 0.990329 0.000000 0.000000 0.000000 -3.883150 6.085917 -3.216041 -0.405545 11.557869 -0.727289 -1.890415 25.814505 -3.955655 0.000000 0.000000 0.000000 -4.783555 5.672142 -3.197631 -0.424427 -8.357717 -1.758575 -0.535731 -1.684539 0.876230 -11.806908 6.229450 -44.842989 -22.508866 -31.793725 -18.875559 0.000000 0.000000 0.000000 -4.923532 5.613418 -2.714426 -1.977686 20.820968 0.743201 -5.977579 -0.780057 2.990149 7.857996 -31.214473 61.774690 -20.124843 41.284416 19.611240 0.000000 0.000000 0.000000 
-0.490391 82.839371 0.630806 0.000000 0.000000 0.000000 7.109078 -55.975528 9.178583 -68.804437 27.203680 40.706684 47.704486 -16.163337 2.770901 9.332222 -0.832836 -6.968104 0.505496 -8.108063 -0.218328 0.000000 0.000000 0.000000 5.891211 -56.324591 9.370470 -35.190695 -1.460936 -24.725503 42.775665 1.795373 -8.847732 -19.012545 -2.782041 23.807330 4.799674 6.732050 4.832539 0.000000 0.000000 0.000000 8.997984 -50.417656 9.970264 13.842601 3.010916 -4.091042 2.817109 6.912211 -4.296657 -0.198819 -3.553254 1.173382 0.000000 0.000000 0.000000 -3.870407 6.258014 -3.139106 -0.116360 11.983403 -0.941252 -1.398974 24.695859 -3.810698 0.000000 0.000000 0.000000 -4.806018 5.791955 -2.992397 -0.327697 -8.853781 -1.433066 0.121219 -1.184636 -0.046867 -11.668003 6.549949 -43.991466 -23.799258 -34.369222 -20.755854 0.000000 0.000000 0.000000 -4.832387 5.737823 -2.584780 -1.659159 20.195997 0.448976 -6.309705 -0.766939 2.755767 10.333268 -32.497111 63.306134 -21.292317 44.556886 20.532351 0.000000 0.000000 0.000000 
